<svg width="122" height="93" viewBox="0 0 122 93" fill="none" xmlns="http://www.w3.org/2000/svg">
<g filter="url(#filter0_d)">
<path d="M4 5C4 2.23858 6.23858 0 9 0H50.9014C53.6629 0 55.9014 2.23858 55.9014 5V63.2221C55.9014 65.9836 53.6629 68.2221 50.9014 68.2221H9C6.23857 68.2221 4 65.9836 4 63.2221V5Z" fill="white"/>
</g>
<path d="M4 5C4 2.23858 6.23858 0 9 0H51C53.7614 0 56 2.23858 56 5V20H4V5Z" fill="#DB524B"/>
<g filter="url(#filter1_d)">
<path d="M35 13C35 10.2386 37.2386 8 40 8H81.9014C84.6629 8 86.9014 10.2386 86.9014 13V71.2221C86.9014 73.9836 84.6629 76.2221 81.9014 76.2221H40C37.2386 76.2221 35 73.9836 35 71.2221V13Z" fill="white"/>
</g>
<path d="M35 13C35 10.2386 37.2386 8 40 8H82C84.7614 8 87 10.2386 87 13V28H35V13Z" fill="#0CCA4A"/>
<g filter="url(#filter2_d)">
<path d="M66 21C66 18.2386 68.2386 16 71 16H112.901C115.663 16 117.901 18.2386 117.901 21V79.2221C117.901 81.9836 115.663 84.2221 112.901 84.2221H71C68.2386 84.2221 66 81.9836 66 79.2221V21Z" fill="white"/>
</g>
<path d="M66 21C66 18.2386 68.2386 16 71 16H113C115.761 16 118 18.2386 118 21V36H66V21Z" fill="#00B6CE"/>
<defs>
<filter id="filter0_d" x="0" y="0" width="59.9014" height="76.2221" filterUnits="userSpaceOnUse" color-interpolation-filters="sRGB">
<feFlood flood-opacity="0" result="BackgroundImageFix"/>
<feColorMatrix in="SourceAlpha" type="matrix" values="0 0 0 0 0 0 0 0 0 0 0 0 0 0 0 0 0 0 127 0" result="hardAlpha"/>
<feOffset dy="4"/>
<feGaussianBlur stdDeviation="2"/>
<feColorMatrix type="matrix" values="0 0 0 0 0 0 0 0 0 0 0 0 0 0 0 0 0 0 0.25 0"/>
<feBlend mode="normal" in2="BackgroundImageFix" result="effect1_dropShadow"/>
<feBlend mode="normal" in="SourceGraphic" in2="effect1_dropShadow" result="shape"/>
</filter>
<filter id="filter1_d" x="31" y="8" width="59.9014" height="76.2221" filterUnits="userSpaceOnUse" color-interpolation-filters="sRGB">
<feFlood flood-opacity="0" result="BackgroundImageFix"/>
<feColorMatrix in="SourceAlpha" type="matrix" values="0 0 0 0 0 0 0 0 0 0 0 0 0 0 0 0 0 0 127 0" result="hardAlpha"/>
<feOffset dy="4"/>
<feGaussianBlur stdDeviation="2"/>
<feColorMatrix type="matrix" values="0 0 0 0 0 0 0 0 0 0 0 0 0 0 0 0 0 0 0.25 0"/>
<feBlend mode="normal" in2="BackgroundImageFix" result="effect1_dropShadow"/>
<feBlend mode="normal" in="SourceGraphic" in2="effect1_dropShadow" result="shape"/>
</filter>
<filter id="filter2_d" x="62" y="16" width="59.9014" height="76.2221" filterUnits="userSpaceOnUse" color-interpolation-filters="sRGB">
<feFlood flood-opacity="0" result="BackgroundImageFix"/>
<feColorMatrix in="SourceAlpha" type="matrix" values="0 0 0 0 0 0 0 0 0 0 0 0 0 0 0 0 0 0 127 0" result="hardAlpha"/>
<feOffset dy="4"/>
<feGaussianBlur stdDeviation="2"/>
<feColorMatrix type="matrix" values="0 0 0 0 0 0 0 0 0 0 0 0 0 0 0 0 0 0 0.25 0"/>
<feBlend mode="normal" in2="BackgroundImageFix" result="effect1_dropShadow"/>
<feBlend mode="normal" in="SourceGraphic" in2="effect1_dropShadow" result="shape"/>
</filter>
</defs>
</svg>
